<?xml version="1.0" encoding="UTF-8" standalone="no"?>
<svg
   xmlns:dc="http://purl.org/dc/elements/1.1/"
   xmlns:cc="http://creativecommons.org/ns#"
   xmlns:rdf="http://www.w3.org/1999/02/22-rdf-syntax-ns#"
   xmlns:svg="http://www.w3.org/2000/svg"
   xmlns="http://www.w3.org/2000/svg"
   xmlns:sodipodi="http://sodipodi.sourceforge.net/DTD/sodipodi-0.dtd"
   xmlns:inkscape="http://www.inkscape.org/namespaces/inkscape"
   sodipodi:docname="Logo of Charlotte County, Florida.svg"
   inkscape:version="1.1-dev (ddb55ca, 2020-02-02)"
   id="svg8"
   version="1.1"
   viewBox="0 0 490.45468 265.85791"
   height="265.85791mm"
   width="490.45468mm">
  <defs
     id="defs2" />
  <sodipodi:namedview
     inkscape:window-maximized="0"
     inkscape:window-y="23"
     inkscape:window-x="0"
     inkscape:window-height="1209"
     inkscape:window-width="1251"
     fit-margin-bottom="0"
     fit-margin-right="0"
     fit-margin-left="0"
     fit-margin-top="0"
     showgrid="false"
     inkscape:current-layer="layer1"
     inkscape:document-units="mm"
     inkscape:cy="241.45012"
     inkscape:cx="1105.4485"
     inkscape:zoom="0.24748737"
     inkscape:pageshadow="2"
     inkscape:pageopacity="0.0"
     borderopacity="1.0"
     bordercolor="#666666"
     pagecolor="#ffffff"
     id="base" />
  <metadata
     id="metadata5">
    <rdf:RDF>
      <cc:Work
         rdf:about="">
        <dc:format>image/svg+xml</dc:format>
        <dc:type
           rdf:resource="http://purl.org/dc/dcmitype/StillImage" />
        <dc:title></dc:title>
      </cc:Work>
    </rdf:RDF>
  </metadata>
  <g
     transform="translate(115.8689,-11.396581)"
     id="layer1"
     inkscape:groupmode="layer"
     inkscape:label="Layer 1">
    <g
       style="fill:#000080"
       id="g917">
      <path
         style="fill:#ffde16;stroke:none;stroke-width:8.90889;fill-opacity:1"
         d="m 777.60073,460.96255 c -21.73028,-23.93832 -40.42889,-60.3992 -47.08806,-91.81816 -5.94503,-28.0496 -5.27808,-72.2225 1.49003,-98.68554 12.25574,-47.9195 45.88884,-94.55964 88.06931,-122.12863 58.88347,-38.48602 132.13187,-44.45285 198.44929,-16.16573 7.4643,3.18382 13.5715,6.70861 13.5715,7.83287 0,1.12426 -10.6072,10.47356 -23.5715,20.77623 -28.82028,22.90338 -60.22705,54.53062 -78.78008,79.33313 -40.55891,54.22094 -74.04947,126.55958 -89.46749,193.24714 l -6.69582,28.96146 -18.59972,1.892 c -10.22985,1.04057 -21.19101,2.53591 -24.35814,3.32294 -3.87206,0.9622 -8.13697,-1.18925 -13.01932,-6.56771 z"
         id="path847"
         inkscape:connector-curvature="0"
         transform="matrix(0.26458333,0,0,0.26458333,-115.8689,11.396581)" />
      <path
         style="fill:#ffde16;stroke:none;stroke-width:8.90889;fill-opacity:1"
         d="m 729.23561,451.33249 c -23.49232,-6.47872 -52.96727,-6.8254 -76.59087,-0.90082 -27.67237,6.93996 -27.53865,2.13217 0.71521,-25.71655 12.93439,-12.74891 31.33299,-34.49591 40.88579,-48.32669 12.89752,-18.67334 17.73382,-23.82191 18.78697,-20 0.78003,2.83078 2.96743,12.21829 4.86088,20.86115 3.5658,16.27645 20.53546,54.49493 31.39836,70.71428 7.15515,10.68333 6.72765,10.75513 -20.05634,3.36863 z"
         id="path849"
         inkscape:connector-curvature="0"
         transform="matrix(0.26458333,0,0,0.26458333,-115.8689,11.396581)" />
      <path
         style="fill:#ffde16;stroke:none;stroke-width:8.90889;fill-opacity:1"
         d="m 693.36835,330.08723 c -19.92135,-20.33291 -37.83594,-31.6569 -64.13274,-40.53892 -25.267,-8.53419 -25.36745,-14.69708 -0.32279,-19.80574 23.70284,-4.83495 41.64306,-10.82069 72.95835,-24.3425 14.02099,-6.0542 25.9311,-11.00764 26.46692,-11.00764 0.53581,0 -1.0491,4.82143 -3.52204,10.71429 -7.76248,18.49754 -13.22444,49.71642 -13.49669,77.14286 -0.14428,14.53571 -0.35073,26.21757 -0.45876,25.95969 -0.10803,-0.25788 -7.97955,-8.4128 -17.49225,-18.12204 z"
         id="path851"
         inkscape:connector-curvature="0"
         transform="matrix(0.26458333,0,0,0.26458333,-115.8689,11.396581)" />
      <path
         style="fill:#ffde16;stroke:none;stroke-width:8.90889;fill-opacity:1"
         d="m 725.25528,207.96386 c -6.40585,-25.29419 -21.44163,-54.90321 -36.65992,-72.1921 -11.62859,-13.21078 -13.23663,-24.2127 -2.90709,-19.88979 28.62396,11.97912 84.32607,24.22475 110.19189,24.22475 6.5256,0 4.55141,2.77314 -17.79742,25 -15.92301,15.83612 -29.04917,32.06928 -35.80948,44.28571 -5.86977,10.60715 -10.91974,19.28572 -11.22215,19.28572 -0.30242,0 -2.91054,-9.32143 -5.79583,-20.71429 z"
         id="path853"
         inkscape:connector-curvature="0"
         transform="matrix(0.26458333,0,0,0.26458333,-115.8689,11.396581)" />
      <path
         style="fill:#ffde16;stroke:none;stroke-width:8.90889;fill-opacity:1"
         d="m 1022.5358,118.19317 c -14.72,-7.72813 -61.91188,-18.08645 -82.40083,-18.08645 h -19.7965 l 17.22479,-15.947118 c 20.68576,-19.151365 37.99381,-44.249694 44.639,-64.730802 2.68324,-8.270001 5.95179,-16.2033041 7.26346,-17.6295615 4.71137,-5.1229651 11.19848,4.5151531 11.19848,16.6379855 0,13.918864 10.5422,51.878636 22.715,81.790586 4.7001,11.54955 8.262,21.27676 7.9153,21.61603 -0.3467,0.33926 -4.2881,-1.30354 -8.7587,-3.65067 z"
         id="path855"
         inkscape:connector-curvature="0"
         transform="matrix(0.26458333,0,0,0.26458333,-115.8689,11.396581)" />
      <path
         style="fill:#8cc63f;stroke:none;stroke-width:8.90889;fill-opacity:1"
         d="m 883.52133,450.31358 c 0,-0.67192 8.03571,-6.02692 17.85714,-11.89995 36.60105,-21.8868 62.40687,-42.00977 114.53323,-89.31128 39.2579,-35.62412 68.8817,-69.95536 94.0505,-108.99563 15.7429,-24.41949 44.0908,-76.17394 34.4415,-62.87958 -62.5258,86.14555 -127.1101,153.22667 -191.859,199.27607 -38.50668,27.38594 -75.97033,49.90551 -77.14758,46.37374 -2.02897,-6.08689 18.46471,-59.55783 36.80858,-96.03886 32.89717,-65.42368 62.92062,-101.42445 129.8871,-155.7461 49.9283,-40.50073 100.9738,-85.616639 146.5683,-129.542582 23.3203,-22.466938 39.2509,-35.7513173 41.7312,-34.7995038 6.9077,2.65072 10.6437,27.2384608 12.2496,80.6188378 2.9358,97.585328 -13.8206,159.022518 -61.3918,225.093178 -30.8795,42.88777 -89.8225,93.63591 -130.2574,112.1476 -23.0769,10.565 -65.13606,20.39814 -102.03049,23.85409 -33.35782,3.12465 -65.44088,4.03162 -65.44088,1.84997 z"
         id="path857"
         inkscape:connector-curvature="0"
         transform="matrix(0.26458333,0,0,0.26458333,-115.8689,11.396581)" />
      <path
         style="fill:#ffde16;stroke:none;stroke-width:8.90889;fill-opacity:1"
         d="m 812.07324,123.67815 c 10.95975,-28.905145 13.10327,-76.383019 4.42962,-98.113677 -1.04234,-2.61144 0.19503,-6.208774 2.91093,-8.462775 4.13641,-3.43291 5.45494,-2.867966 10.60121,4.542246 9.11884,13.130391 47.31339,50.045073 66.70748,64.472156 l 17.48686,13.00832 -27.69403,6.24555 c -17.42452,3.92957 -37.15257,10.99578 -53.20115,19.05564 -14.02891,7.04556 -25.70502,12.81323 -25.94691,12.81704 -0.24188,0.004 1.87581,-6.10022 4.70599,-13.5645 z"
         id="path859"
         inkscape:connector-curvature="0"
         transform="matrix(0.26458333,0,0,0.26458333,-115.8689,11.396581)" />
      <path
         style="fill:#1dbecf;stroke:none;stroke-width:8.90889;fill-opacity:1"
         d="m 638.69711,612.59082 c -4.11649,-10.7274 25.1749,-49.02267 54.66171,-71.46416 25.4615,-19.37796 47.01678,-30.78175 77.94217,-41.23519 37.56166,-12.69665 69.72379,-17.09083 146.49844,-20.01548 69.7777,-2.65811 81.79275,-3.90788 117.33007,-12.20432 46.4389,-10.8415 94.894,-34.63416 116.8095,-57.35632 5.4154,-5.61474 12.3439,-10.20863 15.3968,-10.20863 5.0282,0 5.408,1.54625 4.0354,16.42857 -2.9868,32.38276 -24.6901,68.42478 -54.9507,91.2548 -43.9656,33.16974 -84.965,44.82876 -168.743,47.9855 -131.34416,4.94903 -216.91962,20.22288 -280.66238,50.09375 -13.35664,6.25913 -24.79003,11.38024 -25.40754,11.38024 -0.6175,0 -1.92722,-2.09644 -2.91047,-4.65876 z"
         id="path861"
         inkscape:connector-curvature="0"
         transform="matrix(0.26458333,0,0,0.26458333,-115.8689,11.396581)" />
    </g>
    <g
       style="fill:#0f75bc;fill-opacity:1"
       id="g937">
      <path
         style="fill:#0f75bc;stroke:none;stroke-width:8.90889;fill-opacity:1"
         d="m 949.23561,711.53529 v -54.28571 h 36.90918 c 20.30001,0 39.03071,-0.81412 41.62371,-1.80915 3.9657,-1.52176 4.5701,-0.0467 3.8051,9.28572 l -0.9094,11.09486 -28.5714,1.42857 -28.57147,1.42857 v 10 10 l 25.71428,1.42857 25.71429,1.42857 -0.9311,8.55011 c -0.512,4.70256 -1.5507,9.16974 -2.308,9.92708 -0.7573,0.75733 -9.6688,1.00459 -19.8033,0.54946 -25.47771,-1.14419 -29.81475,0.63941 -29.81475,12.26123 0,11.61943 3.6125,12.90451 36.42855,12.95882 l 23.5715,0.039 v 10 10 h -41.42862 -41.42857 z"
         id="path863"
         inkscape:connector-curvature="0"
         transform="matrix(0.26458333,0,0,0.26458333,-115.8689,11.396581)" />
      <path
         style="fill:#0f75bc;stroke:none;stroke-width:8.90889;fill-opacity:1"
         d="m 877.80704,721.53529 v -44.28571 h -17.14286 -17.14285 v -11.42857 -11.42858 h 45.71428 45.71429 v 11.42858 11.42857 h -17.49026 -17.49026 l 1.18986,44.28571 1.18986,44.28572 h -12.27103 -12.27103 z"
         id="path865"
         inkscape:connector-curvature="0"
         transform="matrix(0.26458333,0,0,0.26458333,-115.8689,11.396581)" />
      <path
         style="fill:#0f75bc;stroke:none;stroke-width:8.90889;fill-opacity:1"
         d="M 772.09275,721.53529 V 677.24958 H 754.9499 737.80704 v -11.42857 -11.42858 h 45.54567 c 25.05011,0 46.25866,1.15367 47.13011,2.5637 0.87145,1.41003 0.78662,6.55289 -0.18851,11.42857 -1.71914,8.59565 -2.23938,8.86488 -17.13013,8.86488 h -15.35714 v 44.28571 44.28572 H 784.9499 772.09275 Z"
         id="path867"
         inkscape:connector-curvature="0"
         transform="matrix(0.26458333,0,0,0.26458333,-115.8689,11.396581)" />
      <path
         style="fill:#0f75bc;stroke:none;stroke-width:8.90889;fill-opacity:1"
         d="m 649.75517,761.25908 c -20.08254,-10.00755 -29.11528,-25.11373 -29.02824,-48.54624 0.0755,-20.32336 6.96192,-36.96395 19.7499,-47.72432 5.05847,-4.25642 10.06285,-7.79494 11.12085,-7.86337 1.05801,-0.0684 7.70936,-1.25588 14.78079,-2.63875 46.5514,-9.1035 83.19668,33.3489 67.28911,77.95231 -5.28046,14.80593 -11.85447,21.55299 -28.71768,29.47363 -19.11007,8.97598 -36.27915,8.77278 -55.19473,-0.65326 z m 50.32226,-23.07026 c 8.02719,-5.01415 12.01532,-14.85611 12.01532,-29.65159 0,-33.64648 -49.59362,-43.27396 -64.21317,-12.46554 -15.27992,32.20005 21.09171,61.54741 52.19785,42.11713 z"
         id="path869"
         inkscape:connector-curvature="0"
         transform="matrix(0.26458333,0,0,0.26458333,-115.8689,11.396581)" />
      <path
         style="fill:#0f75bc;stroke:none;stroke-width:8.90889;fill-opacity:1"
         d="m 537.80704,711.53529 v -54.28571 h 11.35415 11.35416 l 0.7887,43.57143 0.7887,43.57142 27.85715,0.81775 27.85714,0.81775 v 9.89654 9.89654 h -40 -40 z"
         id="path871"
         inkscape:connector-curvature="0"
         transform="matrix(0.26458333,0,0,0.26458333,-115.8689,11.396581)" />
      <path
         style="fill:#0f75bc;stroke:none;stroke-width:8.90889;fill-opacity:1"
         d="m 429.8882,710.82101 0.77598,-55 26.43887,-0.82164 c 45.4546,-1.41259 63.56113,7.70985 63.56113,32.0234 0,15.88515 -7.10222,31.49731 -16.21812,35.65079 -7.7285,3.52134 -7.72868,3.5208 9.42546,27.43316 l 10.24823,14.28571 -11.93894,0.88889 c -14.11857,1.05116 -17.44119,-1.31138 -30.45461,-21.65463 -8.88633,-13.89157 -10.63403,-15.21731 -18.99581,-14.40956 -9.19186,0.88793 -9.21065,0.92295 -10.05968,18.74673 l -0.85063,17.85715 h -11.35393 -11.35393 z m 55.94717,-5.23881 c 10.12995,-3.53132 13.71012,-11.17426 9.19034,-19.61954 -3.75542,-7.01706 -12.10737,-9.38493 -28.87642,-8.18678 l -12.62796,0.90227 -0.8636,15 -0.8636,15 h 12.5801 c 6.91906,0 16.57657,-1.39318 21.46114,-3.09595 z"
         id="path873"
         inkscape:connector-curvature="0"
         transform="matrix(0.26458333,0,0,0.26458333,-115.8689,11.396581)" />
      <path
         style="fill:#0f75bc;stroke:none;stroke-width:8.90889;fill-opacity:1"
         d="m 303.52261,763.85062 c 7e-4,-1.27343 9.96499,-25.45819 22.14286,-53.7439 l 22.14157,-51.42857 11.81247,-0.86242 11.81247,-0.86242 12.90255,30.86242 c 25.65734,61.37136 30.61537,73.6482 30.61537,75.80831 0,1.20833 -5.03572,2.19697 -11.19048,2.19697 -10.62686,0 -11.39393,-0.61159 -15.22997,-12.14286 l -4.03949,-12.14286 -23.06611,-0.82538 -23.0661,-0.82539 -6.74028,12.25396 c -5.8451,10.62649 -8.15844,12.37173 -17.41821,13.14071 -5.87287,0.48772 -10.67736,-0.15514 -10.67665,-1.42857 z m 68.57014,-46.23463 c 0,-1.36991 -2.97836,-9.23939 -6.6186,-17.48775 l -6.61859,-14.99701 -6.23855,15.01161 c -3.4312,8.25639 -6.23854,16.12587 -6.23854,17.48775 0,1.36187 5.78571,2.47613 12.85714,2.47613 7.07143,0 12.85714,-1.12083 12.85714,-2.49073 z"
         id="path875"
         inkscape:connector-curvature="0"
         transform="matrix(0.26458333,0,0,0.26458333,-115.8689,11.396581)" />
      <path
         style="fill:#0f75bc;stroke:none;stroke-width:8.90889;fill-opacity:1"
         d="m 199.7118,763.91624 c -1.04762,-1.04761 -1.90476,-25.47619 -1.90476,-54.28571 v -52.38095 h 13.25123 13.25124 l -1.91011,21.07877 c -2.2061,24.34509 -2.35554,24.2241 27.5505,22.30419 l 16.42857,-1.05467 v -21.16415 -21.16414 h 11.42857 11.42857 v 54.28571 54.28572 H 277.80704 266.37847 V 744.5675 723.31399 l -12.31087,-1.84612 c -6.77097,-1.01538 -16.0924,-1.41558 -20.71428,-0.88936 -8.05857,0.91752 -8.43382,1.60165 -9.14408,16.67107 -1.22919,26.07951 -2.37377,28.57143 -13.1233,28.57143 -5.20816,0 -10.32652,-0.85715 -11.37414,-1.90477 z"
         id="path877"
         inkscape:connector-curvature="0"
         transform="matrix(0.26458333,0,0,0.26458333,-115.8689,11.396581)" />
      <path
         style="fill:#0f75bc;stroke:none;stroke-width:8.90889;fill-opacity:1"
         d="m 92.092755,764.40997 c -16.473974,-7.79294 -31.247941,-21.56976 -38.80743,-36.1882 -10.942171,-21.15982 -10.104687,-56.66015 1.92279,-81.5056 13.02618,-26.9085 52.393455,-42.47561 89.135415,-35.24707 17.55794,3.45431 37.23032,11.74648 40.52871,17.08339 0.95623,1.54723 -2.53257,7.47381 -7.75291,13.17018 l -9.49151,10.35704 -9.91039,-5.67036 c -14.87128,-8.50881 -29.44373,-10.11621 -46.57152,-5.13702 -45.571327,13.24794 -51.696696,72.0938 -9.73281,93.50217 15.8143,8.06785 43.67328,6.61735 56.61039,-2.94747 l 8.91093,-6.58813 9.70711,9.4085 9.7071,9.4085 -5.98048,6.36593 c -9.29719,9.89641 -33.44864,18.95517 -53.98968,20.25054 -15.59411,0.9834 -21.0907,-0.0206 -34.285715,-6.2624 z"
         id="path879"
         inkscape:connector-curvature="0"
         transform="matrix(0.26458333,0,0,0.26458333,-115.8689,11.396581)" />
    </g>
    <g
       style="fill:#0f75bc;fill-opacity:1"
       id="g945">
      <path
         style="fill:#0f75bc;stroke:none;stroke-width:8.90889;fill-opacity:1"
         d="m 1162.0348,764.99602 c -18.8662,-9.04318 -39.6647,-32.23719 -43.8647,-48.91685 -10.9564,-43.51161 5.3942,-83.61627 40.3751,-99.032 25.7084,-11.32945 72.0746,-7.594 91.9053,7.40426 4.709,3.56148 4.9921,5.09015 1.967,10.62203 -1.9435,3.55401 -6.5919,8.71385 -10.3297,11.46631 -6.5024,4.78819 -7.2048,4.76638 -16.2527,-0.50479 -27.623,-16.09266 -67.3087,-4.88107 -78.6296,22.2136 -6.0438,14.46493 -3.8111,39.64244 4.5577,51.39539 15.0087,21.07774 49.8896,27.1774 74.6117,13.04742 l 12.8536,-7.34649 7.827,9.37549 7.827,9.37548 -6.0431,6.43262 c -10.1186,10.77073 -30.478,18.56344 -52.2681,20.00605 -17.1687,1.13664 -22.341,0.30717 -34.5365,-5.53852 z"
         id="path881"
         inkscape:connector-curvature="0"
         transform="matrix(0.26458333,0,0,0.26458333,-115.8689,11.396581)" />
      <path
         style="fill:#0f75bc;stroke:none;stroke-width:8.90889;fill-opacity:1"
         d="m 1299.2356,763.2614 c -13.3021,-6.15868 -25.4978,-18.33437 -29.8182,-29.76925 -4.649,-12.30446 -3.5095,-36.35901 2.3315,-49.21792 19.3896,-42.68603 84.7284,-43.71466 105.778,-1.66525 7.9532,15.88766 9.1497,24.39763 5.6951,40.50597 -7.6559,35.69815 -49.9389,55.90992 -83.9864,40.14645 z m 50.0097,-28.43907 c 20.4134,-20.41347 9.1443,-55.49451 -18.5811,-57.84339 -14.5003,-1.22845 -26.7544,3.12862 -32.8415,11.67721 -18.5534,26.05584 -3.2288,54.2717 29.4898,54.29703 11.3602,0.009 15.2264,-1.42447 21.9328,-8.13085 z"
         id="path883"
         inkscape:connector-curvature="0"
         transform="matrix(0.26458333,0,0,0.26458333,-115.8689,11.396581)" />
      <path
         style="fill:#0f75bc;stroke:none;stroke-width:8.90889;fill-opacity:1"
         d="m 1424.9499,763.45103 c -19.3618,-9.18469 -22.7032,-18.38857 -23.8433,-65.67585 l -0.9862,-40.90297 10.9862,0.90297 10.9862,0.90297 0.7973,36.12203 c 0.768,34.7932 1.0766,36.40127 8.3876,43.71228 10.2501,10.25005 24.8644,9.28478 33.3884,-2.20529 5.3212,-7.17288 5.9981,-12.0091 5.9981,-42.85714 v -34.77188 h 9.8712 c 12.1827,0 13.756,4.3154 14.0615,38.57143 0.2507,28.10376 -2.7559,43.6909 -10.4286,54.06459 -11.7104,15.8328 -39.4447,21.51696 -59.2184,12.13686 z"
         id="path885"
         inkscape:connector-curvature="0"
         transform="matrix(0.26458333,0,0,0.26458333,-115.8689,11.396581)" />
      <path
         style="fill:#0f75bc;stroke:none;stroke-width:8.90889;fill-opacity:1"
         d="m 1512.7453,710.82101 0.776,-55 10.1945,-0.85578 c 9.9476,-0.83504 10.8128,-0.0403 35.7143,32.8087 l 25.5198,33.66447 1.4286,-31.86107 c 0.7857,-17.5236 2.3329,-32.76327 3.4382,-33.86596 1.1053,-1.10268 6.5696,-1.14942 12.1428,-0.10387 l 10.1333,1.90101 v 54.15625 54.15625 h -9.7353 c -10.775,0 -21.3272,-10.06921 -48.8362,-46.60072 -7.8571,-10.43419 -15.3806,-19.00328 -16.7187,-19.04241 -1.3382,-0.0391 -2.1355,10.53598 -1.7719,23.50027 1.2205,43.51381 1.5969,42.14286 -11.5711,42.14286 h -11.4902 z"
         id="path887"
         inkscape:connector-curvature="0"
         transform="matrix(0.26458333,0,0,0.26458333,-115.8689,11.396581)" />
      <path
         style="fill:#0f75bc;stroke:none;stroke-width:8.90889;fill-opacity:1"
         d="m 1662.0326,762.24958 c -0.7201,-1.96429 -1.6441,-22.21429 -2.0532,-45 l -0.7438,-41.42857 h -15.7143 -15.7143 l -0.8867,-10.71429 -0.8868,-10.71429 h 47.4878 47.4878 l -0.8867,10.71429 -0.8868,10.71429 h -15.7143 -15.7143 l -0.7868,45 -0.7868,45 h -11.4457 c -6.5535,0 -12.0054,-1.52654 -12.7551,-3.57143 z"
         id="path889"
         inkscape:connector-curvature="0"
         transform="matrix(0.26458333,0,0,0.26458333,-115.8689,11.396581)" />
      <path
         style="fill:#0f75bc;stroke:none;stroke-width:8.90889;fill-opacity:1"
         d="m 1766.3785,745.33774 c 0,-22.16355 -4.1586,-32.01541 -28.9758,-68.64568 -6.0633,-8.94949 -11.0242,-17.62806 -11.0242,-19.28571 0,-1.65766 5.5864,-3.01392 12.4143,-3.01392 14.1269,0 16.5479,2.05732 31.181,26.49685 10.8551,18.12973 10.2696,18.23516 23.0576,-4.15194 11.1157,-19.45962 14.8946,-22.34491 29.2654,-22.34491 6.9592,0 12.6531,0.65257 12.6531,1.45014 0,0.79757 -9.7777,17.07476 -21.7282,36.17153 -18.7566,29.97272 -21.5164,36.02652 -20.1796,44.26415 0.8517,5.24852 0.8183,14.04276 -0.074,19.54276 -1.5668,9.65511 -2.0533,10 -14.1061,10 h -12.4833 z"
         id="path891"
         inkscape:connector-curvature="0"
         transform="matrix(0.26458333,0,0,0.26458333,-115.8689,11.396581)" />
    </g>
    <path
       transform="matrix(0.26458333,0,0,0.26458333,-115.8689,11.396581)"
       inkscape:connector-curvature="0"
       id="path893"
       d="m 497.80704,837.02628 c -130.792,-2.72363 -294.20508,-7.77539 -361.42857,-11.17323 -28.28572,-1.42971 -69.736952,-3.45141 -92.113864,-4.49265 -22.376908,-1.04125 -40.0450254,-2.92915 -39.2624808,-4.19533 0.7825445,-1.26618 85.3052098,-1.59681 187.8281448,-0.73473 102.52294,0.86208 269.97677,0.0848 372.11963,-1.72729 174.60691,-3.09766 246.01151,-4.86972 472.8571,-11.73496 244.8395,-7.4098 685.8787,-6.35075 791.3066,1.90014 38.0462,2.97753 19.3049,6.24009 -37.1444,6.46625 -89.1576,0.3572 -368.9984,9.27669 -585.5907,18.6648 -221.44206,9.59831 -467.77915,12.04127 -708.57146,7.027 z"
       style="fill:#1dbecf;stroke:none;stroke-width:8.90889;fill-opacity:1" />
    <g
       style="fill:#0f75bc;fill-opacity:1"
       id="g926">
      <path
         style="fill:#0f75bc;stroke:none;stroke-width:8.90889;fill-opacity:1"
         d="m 1136.2019,999.24829 c -0.7842,-2.04357 -1.0653,-21.00786 -0.6246,-42.14286 l 0.8012,-38.42728 21.4285,0.33878 c 24.5349,0.38789 40.2385,5.86561 47.1779,16.45658 13.2858,20.2767 4.4337,49.49822 -18.4975,61.06178 -14.7879,7.45711 -47.7819,9.23721 -50.2855,2.713 z m 49.0288,-22.26254 c 15.6785,-14.72914 5.0643,-38.60493 -18.5714,-41.77515 l -11.7094,-1.57056 v 26.46668 26.46668 l 11.7094,-1.57056 c 6.448,-0.86485 14.7928,-4.46721 18.5714,-8.01709 z"
         id="path895"
         inkscape:connector-curvature="0"
         transform="matrix(0.26458333,0,0,0.26458333,-115.8689,11.396581)" />
      <path
         style="fill:#0f75bc;stroke:none;stroke-width:8.90889;fill-opacity:1"
         d="m 1041.9896,999.43963 c -0.8246,-2.1488 -1.1387,-21.1992 -0.698,-42.3342 l 0.8012,-38.42728 9.3631,-0.90109 9.3632,-0.90108 -0.7918,42.32965 -0.7917,42.32967 -7.8734,0.9056 c -4.7201,0.543 -8.4738,-0.659 -9.3726,-3.00127 z"
         id="path897"
         inkscape:connector-curvature="0"
         transform="matrix(0.26458333,0,0,0.26458333,-115.8689,11.396581)" />
      <path
         style="fill:#0f75bc;stroke:none;stroke-width:8.90889;fill-opacity:1"
         d="m 486.37847,960.52823 v -39.5785 l 24.4009,-1.8756 c 30.49656,-2.34415 38.45624,-0.61276 38.45624,8.365 0,6.39658 -1.04351,6.75226 -22.14286,7.54741 -21.79611,0.8214 -22.15701,0.9575 -23.04692,8.69161 l -0.90406,7.85714 h 20.18978 20.18978 v 8.44089 c 0,8.43264 -0.0189,8.44171 -19.28572,9.28571 l -19.28571,0.84483 0.91858,15 0.91859,14.99998 h -10.2043 -10.2043 z"
         id="path899"
         inkscape:connector-curvature="0"
         transform="matrix(0.26458333,0,0,0.26458333,-115.8689,11.396581)" />
      <path
         style="fill:#0f75bc;stroke:none;stroke-width:8.90889;fill-opacity:1"
         d="m 617.80704,961.35427 v -41.6096 l 9.28571,0.89531 9.28572,0.89531 v 31.42857 31.42857 l 20.71428,0.83946 20.71429,0.83946 v 8.44626 8.44629 h -30 -30 z"
         id="path901"
         inkscape:connector-curvature="0"
         transform="matrix(0.26458333,0,0,0.26458333,-115.8689,11.396581)" />
      <path
         style="fill:#0f75bc;stroke:none;stroke-width:8.90889;fill-opacity:1"
         d="m 760.37242,996.47834 c -11.22654,-7.49982 -19.69741,-22.56901 -19.7038,-35.05193 -0.007,-12.81572 11.46904,-33.25218 22.09577,-39.34956 20.04951,-11.50396 52.71508,-2.9526 61.79233,16.1763 5.73557,12.08681 6.06565,33.74135 0.67328,44.16906 -9.94945,19.24009 -45.54872,26.95529 -64.85758,14.05613 z m 38.41369,-13.82954 c 14.93251,-6.80371 17.48662,-27.37309 4.955,-39.90472 -17.06074,-17.06074 -43.07693,-6.98286 -43.07693,16.68669 0,20.84915 18.53933,32.14046 38.12193,23.21803 z"
         id="path903"
         inkscape:connector-curvature="0"
         transform="matrix(0.26458333,0,0,0.26458333,-115.8689,11.396581)" />
      <path
         style="fill:#0f75bc;stroke:none;stroke-width:8.90889;fill-opacity:1"
         d="m 900.66418,958.67815 v -41.42857 h 21.52034 c 21.38049,0 40.26168,5.16849 44.76435,12.25367 1.20958,1.90334 2.21893,9.05191 2.24299,15.88573 0.0354,10.04965 -1.53576,13.9006 -8.21805,20.14279 l -8.2618,7.71768 8.2618,11.08046 c 4.54399,6.09426 8.2618,12.13714 8.2618,13.42864 0,1.29149 -4.4458,2.34815 -9.87956,2.34815 -8.68808,0 -10.78826,-1.55056 -17.41435,-12.85712 -6.18759,-10.55833 -9.01879,-12.85715 -15.83472,-12.85715 -7.9322,0 -8.29994,0.56965 -8.29994,12.85715 0,12.38095 -0.31746,12.85712 -8.57143,12.85712 h -8.57143 z m 47.85715,-4.9586 c 5.34579,-4.31675 4.30654,-13.01836 -1.95503,-16.36945 -3.03955,-1.62672 -10.75383,-2.95767 -17.14286,-2.95767 -11.56353,0 -11.6164,0.0498 -11.6164,10.95238 0,6.02382 0.92285,11.87524 2.05078,13.00316 2.61845,2.61846 23.95587,-0.82699 28.66351,-4.62842 z"
         id="path905"
         inkscape:connector-curvature="0"
         transform="matrix(0.26458333,0,0,0.26458333,-115.8689,11.396581)" />
      <path
         style="fill:#0f75bc;stroke:none;stroke-width:8.90889;fill-opacity:1"
         d="m 1263.5213,999.28253 c 0,-2.62852 29.5919,-70.2669 33.077,-75.60438 6.8974,-10.56327 14.5602,-8.09862 22.2079,7.14286 6.4976,12.94934 27.5723,64.80097 27.5723,67.83806 0,0.7962 -3.7314,1.44763 -8.292,1.44763 -6.6444,0 -8.8855,-1.70295 -11.2799,-8.57141 -2.8795,-8.26018 -3.6207,-8.57143 -20.4124,-8.57143 -16.3636,0 -17.7207,0.52072 -22.2915,8.55337 -3.5479,6.23513 -6.9966,8.55827 -12.7242,8.57147 -4.3215,0.01 -7.8572,-0.35286 -7.8572,-0.80617 z m 51.4286,-34.54117 c 0,-3.09941 -9.0783,-22.22299 -10.076,-21.22527 -0.6435,0.64342 -3.1568,5.92525 -5.5853,11.73739 l -4.4154,10.56753 h 10.0384 c 5.521,0 10.0383,-0.48584 10.0383,-1.07965 z"
         id="path907"
         inkscape:connector-curvature="0"
         transform="matrix(0.26458333,0,0,0.26458333,-115.8689,11.396581)" />
    </g>
  </g>
</svg>
