<?xml version="1.0" encoding="UTF-8"?> <!-- Generator: Adobe Illustrator 25.2.0, SVG Export Plug-In . SVG Version: 6.00 Build 0) --> <svg xmlns="http://www.w3.org/2000/svg" xmlns:xlink="http://www.w3.org/1999/xlink" version="1.2" id="Layer_1" x="0px" y="0px" viewBox="0 0 185 50" overflow="visible" xml:space="preserve"> <g> <g> <path fill="#231F20" d="M48.7,42.2h1l2.07,5.23h0.02V42.2h0.77v6.26H51.5l-2.01-5.07h-0.02v5.07H48.7V42.2z"></path> <path fill="#231F20" d="M53.44,45.18c0-1.07,0.46-1.54,1.58-1.54c1.43,0,1.43,0.86,1.43,1.35v2.62c0,0.19,0,0.38,0.23,0.38 c0.1,0,0.14-0.02,0.18-0.04v0.53c-0.05,0.01-0.25,0.04-0.43,0.04c-0.28,0-0.63,0-0.67-0.61h-0.02c-0.24,0.42-0.69,0.68-1.13,0.68 c-0.88,0-1.28-0.53-1.28-1.37c0-0.66,0.28-1.11,0.89-1.3l0.99-0.3c0.54-0.17,0.54-0.32,0.54-0.71c0-0.44-0.26-0.69-0.75-0.69 c-0.81,0-0.81,0.75-0.81,0.92v0.04H53.44z M55.71,45.9c-0.27,0.29-0.92,0.35-1.25,0.55c-0.24,0.15-0.36,0.33-0.36,0.75 c0,0.47,0.17,0.81,0.67,0.81c0.48,0,0.95-0.41,0.95-0.89V45.9z"></path> <path fill="#231F20" d="M57.75,42.39h0.74v1.37h0.82v0.58h-0.82v3.02c0,0.38,0.1,0.53,0.48,0.53c0.16,0,0.25-0.02,0.32-0.03v0.61 c-0.1,0.02-0.29,0.05-0.6,0.05c-0.76,0-0.95-0.32-0.95-0.93v-3.25h-0.68v-0.58h0.68V42.39z"></path> <path fill="#231F20" d="M59.85,42.2h0.74v0.84h-0.74V42.2z M59.85,43.76h0.74v4.7h-0.74V43.76z"></path> <path fill="#231F20" d="M63.06,43.64c1.36,0,1.69,1.15,1.69,2.47c0,1.32-0.34,2.47-1.69,2.47c-1.36,0-1.69-1.15-1.69-2.47 C61.36,44.79,61.71,43.64,63.06,43.64z M63.98,46.11c0-1.02-0.15-1.89-0.94-1.89c-0.75,0-0.9,0.88-0.9,1.89 c0,1.02,0.15,1.89,0.9,1.89C63.82,48.01,63.98,47.13,63.98,46.11z"></path> <path fill="#231F20" d="M65.49,43.76h0.7v0.55h0.02c0.19-0.43,0.68-0.68,1.14-0.68c1.24,0,1.24,0.94,1.24,1.49v3.33h-0.74v-3.25 c0-0.36-0.03-0.95-0.69-0.95c-0.39,0-0.93,0.26-0.93,0.95v3.25h-0.74V43.76z"></path> <path fill="#231F20" d="M69.43,45.18c0-1.07,0.46-1.54,1.58-1.54c1.43,0,1.43,0.86,1.43,1.35v2.62c0,0.19,0,0.38,0.23,0.38 c0.1,0,0.14-0.02,0.18-0.04v0.53c-0.05,0.01-0.25,0.04-0.43,0.04c-0.28,0-0.63,0-0.67-0.61h-0.02c-0.24,0.42-0.69,0.68-1.13,0.68 c-0.88,0-1.28-0.53-1.28-1.37c0-0.66,0.28-1.11,0.89-1.3l0.99-0.3c0.54-0.17,0.54-0.32,0.54-0.71c0-0.44-0.26-0.69-0.75-0.69 c-0.81,0-0.81,0.75-0.81,0.92v0.04H69.43z M71.71,45.9c-0.27,0.29-0.92,0.35-1.25,0.55c-0.24,0.15-0.36,0.33-0.36,0.75 c0,0.47,0.17,0.81,0.67,0.81c0.48,0,0.95-0.41,0.95-0.89V45.9z"></path> <path fill="#231F20" d="M73.49,42.2h0.74v6.26h-0.74V42.2z"></path> <path fill="#231F20" d="M77.36,42.2h3.24v0.68h-2.46v1.96h2.32v0.68h-2.32v2.25h2.57v0.68h-3.34V42.2z"></path> <path fill="#231F20" d="M83.76,47.93h-0.02c-0.17,0.4-0.56,0.66-0.98,0.66c-1.22,0-1.54-1.28-1.54-2.56 c0-1.39,0.42-2.39,1.54-2.39c0.51,0,0.92,0.35,1.02,0.7h0.02v-0.58h0.7v6.25h-0.74V47.93z M82.85,44.27 c-0.68,0-0.86,0.72-0.86,1.75c0,1.21,0.18,1.93,0.86,1.93c0.79,0,0.95-0.93,0.95-1.84C83.8,45.04,83.67,44.27,82.85,44.27z"></path> <path fill="#231F20" d="M88.55,48.46h-0.7v-0.55h-0.02c-0.19,0.43-0.68,0.68-1.14,0.68c-1.24,0-1.24-0.94-1.24-1.49v-3.33h0.74 v3.25c0,0.36,0.03,0.95,0.69,0.95c0.39,0,0.93-0.26,0.93-0.95v-3.25h0.74V48.46z"></path> <path fill="#231F20" d="M89.56,42.2h0.74v0.84h-0.74V42.2z M89.56,43.76h0.74v4.7h-0.74V43.76z"></path> <path fill="#231F20" d="M91.31,43.76h0.7v0.58h0.02c0.1-0.35,0.51-0.7,1.02-0.7c1.11,0,1.54,0.99,1.54,2.39 c0,1.07-0.32,2.56-1.54,2.56c-0.42,0-0.82-0.25-0.98-0.66h-0.02v2.08h-0.74V43.76z M92.95,47.95c0.68,0,0.86-0.72,0.86-1.93 c0-1.04-0.18-1.75-0.86-1.75c-0.82,0-0.95,0.77-0.95,1.84C92,47.02,92.16,47.95,92.95,47.95z"></path> <path fill="#231F20" d="M95.44,43.76h0.7v0.55h0.02c0.19-0.43,0.68-0.68,1.14-0.68c0.54,0,0.87,0.21,1.02,0.75 c0.21-0.41,0.63-0.75,1.11-0.75c1.24,0,1.24,0.94,1.24,1.49v3.33h-0.74v-3.25c0-0.36-0.03-0.95-0.63-0.95 c-0.34,0-0.88,0.21-0.88,0.95v3.25h-0.74v-3.25c0-0.36-0.03-0.95-0.63-0.95c-0.34,0-0.88,0.21-0.88,0.95v3.25h-0.74V43.76z"></path> <path fill="#231F20" d="M102.31,46.2c0,0.72,0,1.81,0.9,1.81c0.7,0,0.8-0.74,0.8-1.09h0.74c0,0.5-0.3,1.67-1.58,1.67 c-1.15,0-1.63-0.8-1.63-2.41c0-1.18,0.23-2.53,1.68-2.53c1.44,0,1.57,1.25,1.57,2.26v0.3H102.31z M104.01,45.62v-0.25 c0-0.53-0.17-1.15-0.82-1.15c-0.77,0-0.86,0.95-0.86,1.23v0.18H104.01z"></path> <path fill="#231F20" d="M105.59,43.76h0.7v0.55h0.02c0.19-0.43,0.68-0.68,1.14-0.68c1.24,0,1.24,0.94,1.24,1.49v3.33h-0.74v-3.25 c0-0.36-0.03-0.95-0.69-0.95c-0.39,0-0.93,0.26-0.93,0.95v3.25h-0.74V43.76z"></path> <path fill="#231F20" d="M109.87,42.39h0.74v1.37h0.82v0.58h-0.82v3.02c0,0.38,0.1,0.53,0.48,0.53c0.16,0,0.25-0.02,0.32-0.03v0.61 c-0.1,0.02-0.29,0.05-0.6,0.05c-0.76,0-0.95-0.32-0.95-0.93v-3.25h-0.68v-0.58h0.68V42.39z"></path> <path fill="#231F20" d="M114.06,42.2h3.24v0.68h-2.46v1.96h2.32v0.68h-2.32v2.93h-0.77V42.2z"></path> <path fill="#231F20" d="M117.81,42.2h0.74v0.84h-0.74V42.2z M117.81,43.76h0.74v4.7h-0.74V43.76z"></path> <path fill="#231F20" d="M119.56,43.76h0.7v0.55h0.02c0.19-0.43,0.68-0.68,1.14-0.68c1.24,0,1.24,0.94,1.24,1.49v3.33h-0.74v-3.25 c0-0.36-0.03-0.95-0.69-0.95c-0.39,0-0.93,0.26-0.93,0.95v3.25h-0.74V43.76z"></path> <path fill="#231F20" d="M123.5,45.18c0-1.07,0.46-1.54,1.58-1.54c1.43,0,1.43,0.86,1.43,1.35v2.62c0,0.19,0,0.38,0.23,0.38 c0.1,0,0.14-0.02,0.18-0.04v0.53c-0.05,0.01-0.25,0.04-0.43,0.04c-0.28,0-0.63,0-0.67-0.61h-0.02c-0.24,0.42-0.69,0.68-1.13,0.68 c-0.88,0-1.28-0.53-1.28-1.37c0-0.66,0.28-1.11,0.89-1.3l0.99-0.3c0.54-0.17,0.54-0.32,0.54-0.71c0-0.44-0.26-0.69-0.75-0.69 c-0.81,0-0.81,0.75-0.81,0.92v0.04H123.5z M125.77,45.9c-0.27,0.29-0.92,0.35-1.25,0.55c-0.24,0.15-0.36,0.33-0.36,0.75 c0,0.47,0.17,0.81,0.67,0.81c0.48,0,0.95-0.41,0.95-0.89V45.9z"></path> <path fill="#231F20" d="M127.51,43.76h0.7v0.55h0.02c0.19-0.43,0.68-0.68,1.14-0.68c1.24,0,1.24,0.94,1.24,1.49v3.33h-0.74v-3.25 c0-0.36-0.03-0.95-0.69-0.95c-0.39,0-0.93,0.26-0.93,0.95v3.25h-0.74V43.76z"></path> <path fill="#231F20" d="M133.81,45.19c0-0.46-0.18-0.97-0.75-0.97c-0.46,0-0.92,0.23-0.92,1.95c0,0.61,0.01,1.84,0.89,1.84 c0.63,0,0.77-0.67,0.77-1.18h0.74c0,0.75-0.37,1.75-1.54,1.75c-1.15,0-1.63-0.8-1.63-2.41c0-1.18,0.23-2.53,1.68-2.53 c1.28,0,1.5,1.01,1.5,1.55H133.81z"></path> <path fill="#231F20" d="M135.92,46.2c0,0.72,0,1.81,0.9,1.81c0.7,0,0.8-0.74,0.8-1.09h0.74c0,0.5-0.3,1.67-1.58,1.67 c-1.15,0-1.63-0.8-1.63-2.41c0-1.18,0.23-2.53,1.68-2.53c1.44,0,1.57,1.25,1.57,2.26v0.3H135.92z M137.62,45.62v-0.25 c0-0.53-0.17-1.15-0.82-1.15c-0.77,0-0.86,0.95-0.86,1.23v0.18H137.62z"></path> <path fill="#231F20" d="M142.24,42.2h1.04l1.68,6.26h-0.81l-0.45-1.72h-2l-0.46,1.72h-0.81L142.24,42.2z M141.86,46.11h1.68 l-0.8-3.03h-0.02L141.86,46.11z"></path> <path fill="#231F20" d="M147.38,45.14c0-0.6-0.16-0.92-0.69-0.92c-0.24,0-0.76,0.06-0.76,0.72c0,0.55,0.58,0.66,1.16,0.85 c0.57,0.19,1.15,0.39,1.15,1.32c0,0.99-0.64,1.47-1.52,1.47c-1.6,0-1.61-1.18-1.61-1.67h0.74c0,0.57,0.16,1.09,0.88,1.09 c0.24,0,0.78-0.11,0.78-0.78c0-0.63-0.58-0.76-1.15-0.96c-0.57-0.19-1.16-0.36-1.16-1.33c0-0.88,0.68-1.3,1.5-1.3 c1.37,0,1.42,0.95,1.43,1.5H147.38z"></path> <path fill="#231F20" d="M150.95,45.14c0-0.6-0.16-0.92-0.69-0.92c-0.24,0-0.76,0.06-0.76,0.72c0,0.55,0.58,0.66,1.16,0.85 c0.57,0.19,1.15,0.39,1.15,1.32c0,0.99-0.64,1.47-1.52,1.47c-1.6,0-1.61-1.18-1.61-1.67h0.74c0,0.57,0.16,1.09,0.88,1.09 c0.24,0,0.78-0.11,0.78-0.78c0-0.63-0.58-0.76-1.15-0.96c-0.57-0.19-1.16-0.36-1.16-1.33c0-0.88,0.68-1.3,1.5-1.3 c1.37,0,1.42,0.95,1.43,1.5H150.95z"></path> <path fill="#231F20" d="M153.97,43.64c1.36,0,1.69,1.15,1.69,2.47c0,1.32-0.34,2.47-1.69,2.47c-1.36,0-1.69-1.15-1.69-2.47 C152.28,44.79,152.62,43.64,153.97,43.64z M154.89,46.11c0-1.02-0.15-1.89-0.94-1.89c-0.75,0-0.9,0.88-0.9,1.89 c0,1.02,0.15,1.89,0.9,1.89C154.73,48.01,154.89,47.13,154.89,46.11z"></path> <path fill="#231F20" d="M158.64,45.19c0-0.46-0.18-0.97-0.75-0.97c-0.46,0-0.92,0.23-0.92,1.95c0,0.61,0.01,1.84,0.89,1.84 c0.63,0,0.77-0.67,0.77-1.18h0.74c0,0.75-0.37,1.75-1.54,1.75c-1.15,0-1.63-0.8-1.63-2.41c0-1.18,0.23-2.53,1.68-2.53 c1.28,0,1.5,1.01,1.5,1.55H158.64z"></path> <path fill="#231F20" d="M160.18,42.2h0.74v0.84h-0.74V42.2z M160.18,43.76h0.74v4.7h-0.74V43.76z"></path> <path fill="#231F20" d="M161.81,45.18c0-1.07,0.46-1.54,1.58-1.54c1.43,0,1.43,0.86,1.43,1.35v2.62c0,0.19,0,0.38,0.23,0.38 c0.1,0,0.14-0.02,0.18-0.04v0.53c-0.05,0.01-0.25,0.04-0.43,0.04c-0.28,0-0.63,0-0.67-0.61h-0.02c-0.24,0.42-0.69,0.68-1.13,0.68 c-0.88,0-1.28-0.53-1.28-1.37c0-0.66,0.28-1.11,0.89-1.3l0.99-0.3c0.54-0.17,0.54-0.32,0.54-0.71c0-0.44-0.26-0.69-0.75-0.69 c-0.81,0-0.81,0.75-0.81,0.92v0.04H161.81z M164.08,45.9c-0.27,0.29-0.92,0.35-1.25,0.55c-0.24,0.15-0.36,0.33-0.36,0.75 c0,0.47,0.17,0.81,0.67,0.81c0.48,0,0.95-0.41,0.95-0.89V45.9z"></path> <path fill="#231F20" d="M166.12,42.39h0.74v1.37h0.82v0.58h-0.82v3.02c0,0.38,0.1,0.53,0.48,0.53c0.16,0,0.25-0.02,0.32-0.03v0.61 c-0.1,0.02-0.29,0.05-0.6,0.05c-0.76,0-0.95-0.32-0.95-0.93v-3.25h-0.68v-0.58h0.68V42.39z"></path> <path fill="#231F20" d="M168.22,42.2h0.74v0.84h-0.74V42.2z M168.22,43.76h0.74v4.7h-0.74V43.76z"></path> <path fill="#231F20" d="M171.43,43.64c1.36,0,1.69,1.15,1.69,2.47c0,1.32-0.34,2.47-1.69,2.47c-1.36,0-1.69-1.15-1.69-2.47 C169.74,44.79,170.08,43.64,171.43,43.64z M172.35,46.11c0-1.02-0.15-1.89-0.94-1.89c-0.75,0-0.9,0.88-0.9,1.89 c0,1.02,0.15,1.89,0.9,1.89C172.19,48.01,172.35,47.13,172.35,46.11z"></path> <path fill="#231F20" d="M173.86,43.76h0.7v0.55h0.02c0.19-0.43,0.68-0.68,1.14-0.68c1.24,0,1.24,0.94,1.24,1.49v3.33h-0.74v-3.25 c0-0.36-0.03-0.95-0.69-0.95c-0.39,0-0.93,0.26-0.93,0.95v3.25h-0.74V43.76z"></path> </g> <g> <path fill="#005DA9" d="M41.58,34.15V0.01h5.43l24.03,20.12c0.82,0.67,1.54,1.3,2.17,1.89c0.62,0.59,1.19,1.2,1.71,1.83 c-0.13-1.92-0.21-3.27-0.26-4.07c-0.04-0.8-0.06-1.41-0.06-1.84V0.01h7.14v34.14H76.3L51.24,13.06c-0.6-0.54-1.13-1.02-1.58-1.45 c-0.45-0.43-0.87-0.87-1.26-1.32c0.11,1.06,0.19,2.05,0.24,2.99c0.05,0.94,0.08,1.75,0.08,2.44v18.44H41.58z"></path> <polygon fill="#005DA9" points="154.42,5.98 154.42,0.01 119.89,0.01 119.89,13.44 91.12,13.44 91.12,5.82 118.12,5.82 118.12,0.01 83.17,0.01 83.17,34.15 118.45,34.15 118.45,27.72 91.12,27.72 91.12,19.27 119.89,19.27 119.89,34.15 127.84,34.15 127.84,19.27 142.47,19.27 142.47,13.44 127.84,13.44 127.84,5.98 "></polygon> <path fill="#005DA9" d="M139.36,34.15l19.32-34.14h7.66l19.57,34.14h-8.91l-4.1-7.46h-21.64l-3.97,7.46H139.36z M154.64,20.52 h14.96l-7.37-13.89L154.64,20.52z"></path> </g> <g> <path fill="none" d="M20.61,23.39c-1.62-2.12-2.05-4.78-1.42-7.17c-2.69-0.87-4.79-3.08-5.49-5.86c-1.57,0.25-3.1,0.88-4.45,1.91 c-4.36,3.32-5.2,9.55-1.88,13.91c3.32,4.36,9.55,5.2,13.91,1.88c0.87-0.66,1.6-1.44,2.18-2.3C22.38,25.22,21.39,24.42,20.61,23.39 z"></path> <path fill="none" d="M19.46,15.36c0.42-1.1,1.09-2.12,1.97-2.98c-1.71-1.36-3.8-2.09-5.92-2.14 C15.83,12.58,17.38,14.51,19.46,15.36z"></path> <path fill="none" d="M24.37,16.2c-0.74,0.24-1.52,0.39-2.33,0.42c-0.13,0-0.26,0.01-0.39,0c-0.25,1.67,0.14,3.43,1.24,4.88 c0.52,0.68,1.15,1.23,1.85,1.64C25.44,20.89,25.34,18.42,24.37,16.2z"></path> <path fill="none" d="M28.31,10.12c0.03-0.31,0.05-0.62,0.04-0.94c-0.12-3.56-3.1-6.34-6.66-6.22c-3.22,0.11-5.8,2.56-6.17,5.66 c2.49,0.29,4.88,1.3,6.85,2.99C24.15,10.33,26.28,9.85,28.31,10.12z"></path> <path fill="none" d="M25.54,15.71c1.27,2.58,1.59,5.46,1.05,8.17c1.79,0.41,3.75,0.04,5.33-1.16c2.83-2.16,3.38-6.2,1.22-9.03 c-0.94-1.23-2.24-2.03-3.64-2.36C28.76,13.22,27.34,14.78,25.54,15.71z"></path> <path fill="none" d="M22.13,15.84c0.66-0.02,1.3-0.15,1.89-0.35c-0.25-0.46-0.53-0.91-0.86-1.34c-0.1-0.14-0.21-0.27-0.32-0.4 c-0.47,0.64-0.82,1.35-1.03,2.09C21.92,15.85,22.02,15.84,22.13,15.84z"></path> <path fill="none" d="M24.1,12.47c-0.16,0.13-0.32,0.26-0.47,0.39c0.2,0.23,0.4,0.46,0.59,0.71c0.34,0.45,0.65,0.92,0.92,1.39 c1.43-0.83,2.5-2.2,2.96-3.82C26.71,11.13,25.3,11.56,24.1,12.47z"></path> <path fill="#005DA9" d="M23.46,25.77c0.72,0.37,1.49,0.62,2.28,0.76c-0.84,1.91-2.17,3.64-3.94,4.99 c-5.62,4.29-13.66,3.2-17.94-2.42c-4.29-5.62-3.2-13.66,2.42-17.94c2.15-1.64,4.65-2.49,7.16-2.6c0,0.02,0,0.03,0,0.05 c0.02,0.61,0.11,1.2,0.25,1.76c-1.57,0.25-3.1,0.88-4.45,1.91c-4.36,3.32-5.2,9.55-1.88,13.91c3.32,4.36,9.55,5.2,13.91,1.88 C22.15,27.4,22.88,26.62,23.46,25.77z M23.64,12.87c-0.3,0.27-0.56,0.57-0.79,0.88c0.11,0.13,0.22,0.26,0.32,0.4 c0.33,0.43,0.61,0.88,0.86,1.34c0.39-0.14,0.77-0.31,1.12-0.52c-0.27-0.48-0.58-0.94-0.92-1.39 C24.04,13.33,23.84,13.1,23.64,12.87z M22.18,11.75c0.06-0.05,0.13-0.09,0.19-0.14C20.4,9.92,18,8.91,15.51,8.62 c-0.04,0.33-0.05,0.66-0.04,1c0.01,0.21,0.03,0.42,0.05,0.62c2.12,0.06,4.21,0.78,5.92,2.14C21.67,12.16,21.92,11.95,22.18,11.75z M25.54,15.71c-0.38,0.19-0.77,0.36-1.17,0.49c0.97,2.22,1.07,4.7,0.37,6.94c0.58,0.34,1.2,0.59,1.85,0.73 C27.14,21.17,26.81,18.29,25.54,15.71z M13.7,10.36c0.61-0.1,1.22-0.13,1.82-0.12c-0.03-0.2-0.04-0.41-0.05-0.62 c-0.01-0.34,0-0.67,0.04-1c-0.69-0.08-1.38-0.1-2.07-0.07c0,0.02,0,0.03,0,0.05C13.47,9.21,13.55,9.8,13.7,10.36z"></path> <path fill="#38929A" d="M24.02,15.49c0.13,0.23,0.24,0.47,0.34,0.71c-0.74,0.24-1.52,0.39-2.33,0.42c-0.13,0-0.26,0.01-0.39,0 c0.04-0.26,0.1-0.52,0.17-0.78c0.11,0,0.21,0,0.32,0C22.79,15.82,23.43,15.7,24.02,15.49z M15.51,8.62 c0.37-3.1,2.96-5.55,6.17-5.66c3.56-0.12,6.54,2.66,6.66,6.22c0.01,0.32,0,0.63-0.04,0.94c0.5,0.07,0.99,0.18,1.47,0.33 c0.21-0.77,0.3-1.59,0.27-2.42c-0.16-4.59-4-8.18-8.59-8.02c-4.57,0.16-8.15,3.98-8.02,8.54C14.14,8.52,14.83,8.54,15.51,8.62z M19.19,16.22c0.08-0.29,0.17-0.58,0.28-0.86c-2.09-0.86-3.64-2.78-3.94-5.12c-0.61-0.02-1.22,0.02-1.82,0.12 C14.4,13.14,16.5,15.35,19.19,16.22z M25.15,14.97c0.14,0.24,0.27,0.49,0.39,0.74c1.8-0.93,3.21-2.49,3.95-4.38 c-0.45-0.11-0.92-0.16-1.38-0.17C27.65,12.77,26.58,14.14,25.15,14.97z M24.37,16.2c0.41-0.13,0.8-0.3,1.17-0.49 c-0.12-0.25-0.25-0.49-0.39-0.74c-0.35,0.21-0.73,0.38-1.12,0.52C24.15,15.72,24.26,15.96,24.37,16.2z M19.46,15.36 c-0.11,0.28-0.2,0.57-0.28,0.86c0.78,0.25,1.6,0.39,2.46,0.4c0.04-0.26,0.1-0.52,0.17-0.78C20.98,15.83,20.19,15.66,19.46,15.36z"></path> <path fill="#A5B3AC" d="M28.31,10.12c-0.04,0.35-0.11,0.7-0.2,1.04c-1.4-0.02-2.81,0.4-4,1.32c-0.16,0.13-0.32,0.26-0.47,0.39 c-0.4-0.45-0.82-0.87-1.27-1.25C24.15,10.33,26.28,9.85,28.31,10.12z M21.81,15.84c0.21-0.75,0.56-1.46,1.03-2.09 c-0.43-0.51-0.9-0.96-1.41-1.36c-0.89,0.86-1.55,1.88-1.97,2.98C20.19,15.66,20.98,15.83,21.81,15.84z M33.82,13.32 c-1.07-1.4-2.49-2.36-4.05-2.87c-0.08,0.3-0.17,0.59-0.28,0.87c1.4,0.33,2.7,1.13,3.64,2.36c2.16,2.83,1.61,6.87-1.22,9.03 c-1.58,1.2-3.53,1.56-5.33,1.16c-0.18,0.91-0.46,1.8-0.84,2.65c2.21,0.4,4.58-0.1,6.51-1.57C35.9,22.18,36.6,16.97,33.82,13.32z M22.89,21.5c-1.1-1.45-1.5-3.21-1.24-4.88c-0.85-0.01-1.68-0.15-2.46-0.4c-0.64,2.39-0.2,5.05,1.42,7.17 c0.79,1.03,1.77,1.83,2.86,2.38c0.56-0.82,0.98-1.7,1.27-2.63C24.04,22.73,23.41,22.18,22.89,21.5z M24.74,23.14 c-0.29,0.92-0.72,1.81-1.27,2.63c0.72,0.37,1.49,0.62,2.28,0.76c0.38-0.85,0.66-1.74,0.84-2.65 C25.94,23.73,25.32,23.49,24.74,23.14z M22.84,13.75c0.23-0.31,0.5-0.61,0.79-0.88c-0.4-0.45-0.82-0.87-1.27-1.25 c-0.06,0.05-0.13,0.09-0.19,0.14c-0.26,0.2-0.51,0.42-0.74,0.64C21.94,12.79,22.41,13.24,22.84,13.75z M28.11,11.16 c0.47,0.01,0.93,0.06,1.38,0.17c0.11-0.28,0.21-0.58,0.28-0.87c-0.48-0.15-0.97-0.27-1.47-0.33 C28.27,10.47,28.2,10.82,28.11,11.16z"></path> </g> </g> </svg> 